# xmcd CD database file
#
# Track frame offsets:
#	150
#	13995
#	26488
#
# Disc length: 527 seconds
#
# Revision: 4
# Processed by: cddbd v1.5.2PL0 Copyright (c) Steve Scherf et al.
# Submitted via: CDex 1.94
#
DISCID=1c020d03
DTITLE=Paul Weller - The Bottle CDEp
DYEAR=2004
DGENRE=BritPop
TTITLE0=The Bottle
TTITLE1=Corrina Corrina
TTITLE2=Coconut Grove
EXTD=YEAR: 2004
EXTT0=
EXTT1=
EXTT2=
PLAYORDER=
